<svg width="574" height="107" viewBox="0 0 574 107" fill="none" xmlns="http://www.w3.org/2000/svg">
<path d="M82.9979 60.592C81.9099 58.8 80.4059 57.424 78.4859 56.464C76.6299 55.504 74.4219 55.024 71.8619 55.024C67.1259 55.024 63.3819 56.56 60.6299 59.632C57.9419 62.704 56.5979 66.832 56.5979 72.016C56.5979 77.84 58.0379 82.288 60.9179 85.36C63.8619 88.368 68.1179 89.872 73.6859 89.872C80.2779 89.872 84.9819 86.896 87.7979 80.944H68.8859V67.408H104.022V85.648C102.55 89.232 100.374 92.592 97.4939 95.728C94.6779 98.864 91.0939 101.456 86.7419 103.504C82.3899 105.488 77.4299 106.48 71.8619 106.48C65.0779 106.48 59.0619 105.04 53.8139 102.16C48.6299 99.216 44.5979 95.152 41.7179 89.968C38.9019 84.72 37.4939 78.736 37.4939 72.016C37.4939 65.36 38.9019 59.44 41.7179 54.256C44.5979 49.008 48.6299 44.944 53.8139 42.064C58.9979 39.12 64.9819 37.648 71.7659 37.648C80.2779 37.648 87.3179 39.696 92.8859 43.792C98.4539 47.888 101.91 53.488 103.254 60.592H82.9979ZM155.27 94.96H131.27L127.622 106H107.846L132.518 38.32H154.214L178.79 106H158.918L155.27 94.96ZM150.566 80.56L143.27 58.672L136.07 80.56H150.566ZM211.707 38.32C218.811 38.32 225.019 39.76 230.331 42.64C235.707 45.456 239.835 49.424 242.715 54.544C245.595 59.664 247.035 65.52 247.035 72.112C247.035 78.64 245.563 84.464 242.619 89.584C239.739 94.704 235.611 98.736 230.235 101.68C224.923 104.56 218.747 106 211.707 106H184.923V38.32H211.707ZM210.267 89.392C215.771 89.392 220.091 87.888 223.227 84.88C226.363 81.872 227.931 77.616 227.931 72.112C227.931 66.544 226.363 62.256 223.227 59.248C220.091 56.176 215.771 54.64 210.267 54.64H203.739V89.392H210.267ZM299.428 106.672C291.556 106.672 285.092 104.816 280.036 101.104C274.98 97.328 272.26 91.952 271.876 84.976H291.94C292.132 87.344 292.836 89.072 294.052 90.16C295.268 91.248 296.836 91.792 298.756 91.792C300.484 91.792 301.892 91.376 302.98 90.544C304.132 89.648 304.708 88.432 304.708 86.896C304.708 84.912 303.78 83.376 301.924 82.288C300.068 81.2 297.06 79.984 292.9 78.64C288.484 77.168 284.9 75.76 282.148 74.416C279.46 73.008 277.092 70.992 275.044 68.368C273.06 65.68 272.068 62.192 272.068 57.904C272.068 53.552 273.156 49.84 275.332 46.768C277.508 43.632 280.516 41.264 284.356 39.664C288.196 38.064 292.548 37.264 297.412 37.264C305.284 37.264 311.556 39.12 316.228 42.832C320.964 46.48 323.492 51.632 323.812 58.288H303.364C303.3 56.24 302.66 54.704 301.444 53.68C300.292 52.656 298.788 52.144 296.932 52.144C295.524 52.144 294.372 52.56 293.476 53.392C292.58 54.224 292.132 55.408 292.132 56.944C292.132 58.224 292.612 59.344 293.572 60.304C294.596 61.2 295.844 62 297.316 62.704C298.788 63.344 300.964 64.176 303.844 65.2C308.132 66.672 311.652 68.144 314.404 69.616C317.22 71.024 319.62 73.04 321.604 75.664C323.652 78.224 324.676 81.488 324.676 85.456C324.676 89.488 323.652 93.104 321.604 96.304C319.62 99.504 316.708 102.032 312.868 103.888C309.092 105.744 304.612 106.672 299.428 106.672ZM365.199 89.968V106H357.039C343.279 106 336.399 99.184 336.399 85.552V67.792H329.775V52.144H336.399V39.088H355.311V52.144H365.103V67.792H355.311V85.84C355.311 87.312 355.631 88.368 356.271 89.008C356.975 89.648 358.127 89.968 359.727 89.968H365.199ZM398.885 106.672C393.509 106.672 388.677 105.552 384.389 103.312C380.165 101.072 376.837 97.872 374.405 93.712C371.973 89.552 370.757 84.656 370.757 79.024C370.757 73.456 371.973 68.592 374.405 64.432C376.901 60.272 380.261 57.072 384.485 54.832C388.773 52.592 393.605 51.472 398.981 51.472C404.357 51.472 409.157 52.592 413.381 54.832C417.669 57.072 421.029 60.272 423.461 64.432C425.957 68.592 427.205 73.456 427.205 79.024C427.205 84.592 425.957 89.488 423.461 93.712C421.029 97.872 417.669 101.072 413.381 103.312C409.093 105.552 404.261 106.672 398.885 106.672ZM398.885 90.352C401.509 90.352 403.685 89.392 405.413 87.472C407.205 85.488 408.101 82.672 408.101 79.024C408.101 75.376 407.205 72.592 405.413 70.672C403.685 68.752 401.541 67.792 398.981 67.792C396.421 67.792 394.277 68.752 392.549 70.672C390.821 72.592 389.957 75.376 389.957 79.024C389.957 82.736 390.789 85.552 392.453 87.472C394.117 89.392 396.261 90.352 398.885 90.352ZM453.676 61.648C455.788 58.576 458.348 56.144 461.356 54.352C464.364 52.56 467.596 51.664 471.052 51.664V71.728H465.772C461.676 71.728 458.636 72.528 456.652 74.128C454.668 75.728 453.676 78.512 453.676 82.48V106H434.86V52.144H453.676V61.648ZM529.254 78.448C529.254 79.92 529.158 81.392 528.966 82.864H493.35C493.542 85.808 494.342 88.016 495.75 89.488C497.222 90.896 499.078 91.6 501.318 91.6C504.454 91.6 506.694 90.192 508.038 87.376H528.102C527.27 91.088 525.638 94.416 523.206 97.36C520.838 100.24 517.83 102.512 514.182 104.176C510.534 105.84 506.502 106.672 502.086 106.672C496.774 106.672 492.038 105.552 487.878 103.312C483.782 101.072 480.55 97.872 478.182 93.712C475.878 89.552 474.726 84.656 474.726 79.024C474.726 73.392 475.878 68.528 478.182 64.432C480.486 60.272 483.686 57.072 487.782 54.832C491.942 52.592 496.71 51.472 502.086 51.472C507.398 51.472 512.102 52.56 516.198 54.736C520.294 56.912 523.494 60.048 525.798 64.144C528.102 68.176 529.254 72.944 529.254 78.448ZM510.054 73.744C510.054 71.44 509.286 69.648 507.75 68.368C506.214 67.024 504.294 66.352 501.99 66.352C499.686 66.352 497.798 66.992 496.326 68.272C494.854 69.488 493.894 71.312 493.446 73.744H510.054Z" fill="black"/>
<path d="M0 80C0 88.8366 7.16344 96 16 96C24.8366 96 32 88.8366 32 80C32 71.1634 24.8366 64 16 64C7.16344 64 0 71.1634 0 80ZM574 80L544 62.6795V97.3205L574 80ZM16 83H442.439V77H16V83ZM442.439 83H547V77H442.439V83Z" fill="#FFD333"/>
</svg>
