<svg width="79" height="23" viewBox="0 0 79 23" fill="none" xmlns="http://www.w3.org/2000/svg">
<rect width="79" height="22" rx="10" fill="#123C69"/>
<path d="M13.7064 11.294C14.2438 11.4153 14.6684 11.684 14.9804 12.1C15.3011 12.5073 15.4614 12.9753 15.4614 13.504C15.4614 14.284 15.1928 14.895 14.6554 15.337C14.1181 15.779 13.3641 16 12.3934 16H7.85642V6.835H12.2504C13.1864 6.835 13.9188 7.043 14.4474 7.459C14.9848 7.875 15.2534 8.46 15.2534 9.214C15.2534 9.75133 15.1104 10.202 14.8244 10.566C14.5471 10.9213 14.1744 11.164 13.7064 11.294ZM10.4044 10.475H11.6914C12.3328 10.475 12.6534 10.2107 12.6534 9.682C12.6534 9.136 12.3328 8.863 11.6914 8.863H10.4044V10.475ZM11.8864 13.946C12.5278 13.946 12.8484 13.6773 12.8484 13.14C12.8484 12.8627 12.7618 12.6503 12.5884 12.503C12.4238 12.3557 12.1854 12.282 11.8734 12.282H10.4044V13.946H11.8864ZM19.0741 6.835V12.152C19.0741 12.646 19.1868 13.0273 19.4121 13.296C19.6461 13.5647 19.9971 13.699 20.4651 13.699C20.9331 13.699 21.2841 13.5647 21.5181 13.296C21.7608 13.0187 21.8821 12.6373 21.8821 12.152V6.835H24.4301V12.152C24.4301 12.9927 24.2524 13.712 23.8971 14.31C23.5418 14.8993 23.0564 15.3457 22.4411 15.649C21.8344 15.9437 21.1584 16.091 20.4131 16.091C19.6678 16.091 19.0004 15.9437 18.4111 15.649C17.8304 15.3457 17.3711 14.8993 17.0331 14.31C16.7038 13.7207 16.5391 13.0013 16.5391 12.152V6.835H19.0741ZM34.166 6.835L30.942 13.088V16H28.381V13.088L25.157 6.835H28.069L29.681 10.371L31.293 6.835H34.166ZM45.9255 16H43.3775L39.9845 10.878V16H37.4365V6.835H39.9845L43.3775 12.022V6.835H45.9255V16ZM51.7709 16.091C50.9129 16.091 50.1243 15.8917 49.4049 15.493C48.6856 15.0857 48.1136 14.5267 47.6889 13.816C47.2729 13.0967 47.0649 12.2863 47.0649 11.385C47.0649 10.4837 47.2729 9.67767 47.6889 8.967C48.1136 8.24767 48.6856 7.68867 49.4049 7.29C50.1243 6.89133 50.9129 6.692 51.7709 6.692C52.6376 6.692 53.4263 6.89133 54.1369 7.29C54.8563 7.68867 55.4239 8.24767 55.8399 8.967C56.2559 9.67767 56.4639 10.4837 56.4639 11.385C56.4639 12.2863 56.2559 13.0967 55.8399 13.816C55.4239 14.5267 54.8563 15.0857 54.1369 15.493C53.4176 15.8917 52.6289 16.091 51.7709 16.091ZM51.7709 13.725C52.4209 13.725 52.9323 13.5127 53.3049 13.088C53.6863 12.6633 53.8769 12.0957 53.8769 11.385C53.8769 10.657 53.6863 10.085 53.3049 9.669C52.9323 9.24433 52.4209 9.032 51.7709 9.032C51.1123 9.032 50.5966 9.24433 50.2239 9.669C49.8513 10.085 49.6649 10.657 49.6649 11.385C49.6649 12.1043 49.8513 12.6763 50.2239 13.101C50.5966 13.517 51.1123 13.725 51.7709 13.725ZM70.5183 6.835L68.2693 16H65.1363L63.8753 10.384L62.5883 16H59.4553L57.2323 6.835H59.9883L61.0543 13.101L62.4973 6.835H65.2923L66.6963 13.049L67.7623 6.835H70.5183Z" fill="#FF1A67"/>
</svg>
