<svg width="44" height="42" viewBox="0 0 44 42" fill="none" xmlns="http://www.w3.org/2000/svg">
<path d="M15.5139 41.4445C17.2398 41.4445 18.6389 40.0454 18.6389 38.3195C18.6389 36.5936 17.2398 35.1945 15.5139 35.1945C13.788 35.1945 12.3889 36.5936 12.3889 38.3195C12.3889 40.0454 13.788 41.4445 15.5139 41.4445Z" fill="#FF1A67"/>
<path d="M34.5 41.4445C36.2259 41.4445 37.625 40.0454 37.625 38.3195C37.625 36.5936 36.2259 35.1945 34.5 35.1945C32.7741 35.1945 31.375 36.5936 31.375 38.3195C31.375 40.0454 32.7741 41.4445 34.5 41.4445Z" fill="#FF1A67"/>
<path d="M42.9437 4.45843C42.8145 4.29911 42.6516 4.17039 42.4666 4.08154C42.2817 3.99268 42.0794 3.9459 41.8743 3.94454H12.9576L13.8604 6.72232H40.0548L36.3465 23.389H15.5132L9.16595 3.29176C9.09729 3.07851 8.97807 2.88503 8.81845 2.72783C8.65883 2.57063 8.46355 2.45438 8.24928 2.38899L2.55483 0.638986C2.37974 0.58518 2.19576 0.56639 2.0134 0.583686C1.83104 0.600983 1.65388 0.654028 1.49202 0.739793C1.16513 0.913004 0.920444 1.20898 0.811778 1.5626C0.703113 1.91622 0.739375 2.29852 0.912585 2.62541C1.0858 2.9523 1.38177 3.19699 1.73539 3.30565L6.7215 4.83343L13.0965 24.9723L10.8187 26.8334L10.6382 27.014C10.0747 27.6633 9.75539 28.4887 9.73511 29.3482C9.71483 30.2076 9.99489 31.0472 10.5271 31.7223C10.9056 32.1827 11.3866 32.5481 11.9317 32.7892C12.4767 33.0304 13.0707 33.1407 13.6659 33.1112H36.8465C37.2149 33.1112 37.5681 32.9649 37.8286 32.7044C38.0891 32.4439 38.2354 32.0907 38.2354 31.7223C38.2354 31.354 38.0891 31.0007 37.8286 30.7402C37.5681 30.4798 37.2149 30.3334 36.8465 30.3334H13.4437C13.2838 30.328 13.128 30.2814 12.9913 30.1981C12.8546 30.1148 12.7418 29.9977 12.6636 29.8581C12.5854 29.7185 12.5445 29.561 12.5449 29.401C12.5454 29.241 12.587 29.0838 12.6659 28.9445L16.0132 26.1668H37.4576C37.7787 26.1746 38.0925 26.071 38.3458 25.8734C38.599 25.6759 38.7759 25.3967 38.8465 25.0834L43.2493 5.63899C43.2915 5.43193 43.2859 5.21796 43.233 5.01338C43.18 4.8088 43.0811 4.619 42.9437 4.45843Z" fill="#107F8C"/>
</svg>
