<svg width="222" height="30" viewBox="0 0 222 30" fill="none" xmlns="http://www.w3.org/2000/svg">
<ellipse cx="14.0529" cy="15" rx="14.0529" ry="15" fill="#123C69"/>
<path d="M53.7 15C53.7 13.6267 54.0067 12.4 54.62 11.32C55.2467 10.2267 56.0933 9.38 57.16 8.78C58.24 8.16667 59.4467 7.86 60.78 7.86C62.34 7.86 63.7067 8.26 64.88 9.06C66.0533 9.86 66.8733 10.9667 67.34 12.38H64.12C63.8 11.7133 63.3467 11.2133 62.76 10.88C62.1867 10.5467 61.52 10.38 60.76 10.38C59.9467 10.38 59.22 10.5733 58.58 10.96C57.9533 11.3333 57.46 11.8667 57.1 12.56C56.7533 13.2533 56.58 14.0667 56.58 15C56.58 15.92 56.7533 16.7333 57.1 17.44C57.46 18.1333 57.9533 18.6733 58.58 19.06C59.22 19.4333 59.9467 19.62 60.76 19.62C61.52 19.62 62.1867 19.4533 62.76 19.12C63.3467 18.7733 63.8 18.2667 64.12 17.6H67.34C66.8733 19.0267 66.0533 20.14 64.88 20.94C63.72 21.7267 62.3533 22.12 60.78 22.12C59.4467 22.12 58.24 21.82 57.16 21.22C56.0933 20.6067 55.2467 19.76 54.62 18.68C54.0067 17.6 53.7 16.3733 53.7 15ZM69.0116 16.42C69.0116 15.3 69.2316 14.3067 69.6716 13.44C70.1249 12.5733 70.7316 11.9067 71.4916 11.44C72.2649 10.9733 73.1249 10.74 74.0716 10.74C74.8982 10.74 75.6182 10.9067 76.2316 11.24C76.8582 11.5733 77.3582 11.9933 77.7316 12.5V10.92H80.5516V22H77.7316V20.38C77.3716 20.9 76.8716 21.3333 76.2316 21.68C75.6049 22.0133 74.8782 22.18 74.0516 22.18C73.1182 22.18 72.2649 21.94 71.4916 21.46C70.7316 20.98 70.1249 20.3067 69.6716 19.44C69.2316 18.56 69.0116 17.5533 69.0116 16.42ZM77.7316 16.46C77.7316 15.78 77.5982 15.2 77.3316 14.72C77.0649 14.2267 76.7049 13.8533 76.2516 13.6C75.7982 13.3333 75.3116 13.2 74.7916 13.2C74.2716 13.2 73.7916 13.3267 73.3516 13.58C72.9116 13.8333 72.5516 14.2067 72.2716 14.7C72.0049 15.18 71.8716 15.7533 71.8716 16.42C71.8716 17.0867 72.0049 17.6733 72.2716 18.18C72.5516 18.6733 72.9116 19.0533 73.3516 19.32C73.8049 19.5867 74.2849 19.72 74.7916 19.72C75.3116 19.72 75.7982 19.5933 76.2516 19.34C76.7049 19.0733 77.0649 18.7 77.3316 18.22C77.5982 17.7267 77.7316 17.14 77.7316 16.46ZM86.0863 12.64C86.4463 12.0533 86.9129 11.5933 87.4863 11.26C88.0729 10.9267 88.7396 10.76 89.4863 10.76V13.7H88.7463C87.8663 13.7 87.1996 13.9067 86.7463 14.32C86.3063 14.7333 86.0863 15.4533 86.0863 16.48V22H83.2863V10.92H86.0863V12.64ZM94.6322 13.22V18.58C94.6322 18.9533 94.7189 19.2267 94.8922 19.4C95.0789 19.56 95.3855 19.64 95.8122 19.64H97.1122V22H95.3522C92.9922 22 91.8122 20.8533 91.8122 18.56V13.22H90.4922V10.92H91.8122V8.18H94.6322V10.92H97.1122V13.22H94.6322Z" fill="#AC3B61"/>
<g clip-path="url(#clip0_20_714)">
<path d="M11.4055 23.7778C12.0959 23.7778 12.6555 23.2182 12.6555 22.5278C12.6555 21.8374 12.0959 21.2778 11.4055 21.2778C10.7152 21.2778 10.1555 21.8374 10.1555 22.5278C10.1555 23.2182 10.7152 23.7778 11.4055 23.7778Z" fill="white"/>
<path d="M19 23.7778C19.6904 23.7778 20.25 23.2182 20.25 22.5278C20.25 21.8374 19.6904 21.2778 19 21.2778C18.3096 21.2778 17.75 21.8374 17.75 22.5278C17.75 23.2182 18.3096 23.7778 19 23.7778Z" fill="white"/>
<path d="M22.3774 8.98336C22.3257 8.91963 22.2605 8.86814 22.1866 8.8326C22.1126 8.79706 22.0317 8.77835 21.9496 8.7778H10.3829L10.7441 9.88892H21.2218L19.7385 16.5556H11.4052L8.86628 8.51669C8.83882 8.43139 8.79113 8.354 8.72728 8.29112C8.66343 8.22824 8.58532 8.18174 8.49961 8.15558L6.22184 7.45558C6.1518 7.43406 6.07821 7.42654 6.00526 7.43346C5.93232 7.44038 5.86145 7.4616 5.79671 7.4959C5.66596 7.56519 5.56808 7.68358 5.52461 7.82503C5.48115 7.96648 5.49565 8.1194 5.56494 8.25015C5.63422 8.38091 5.75261 8.47878 5.89406 8.52225L7.8885 9.13336L10.4385 17.1889L9.52739 17.9334L9.45517 18.0056C9.2298 18.2653 9.10206 18.5955 9.09395 18.9392C9.08583 19.283 9.19786 19.6189 9.41072 19.8889C9.56215 20.0731 9.75456 20.2192 9.97258 20.3157C10.1906 20.4121 10.4282 20.4563 10.6663 20.4445H19.9385C20.0858 20.4445 20.2272 20.3859 20.3313 20.2818C20.4355 20.1776 20.4941 20.0363 20.4941 19.8889C20.4941 19.7416 20.4355 19.6003 20.3313 19.4961C20.2272 19.3919 20.0858 19.3334 19.9385 19.3334H10.5774C10.5134 19.3312 10.4511 19.3125 10.3964 19.2792C10.3418 19.2459 10.2966 19.1991 10.2653 19.1432C10.2341 19.0874 10.2177 19.0244 10.2179 18.9604C10.218 18.8964 10.2347 18.8335 10.2663 18.7778L11.6052 17.6667H20.1829C20.3114 17.6698 20.4369 17.6284 20.5382 17.5494C20.6395 17.4704 20.7103 17.3587 20.7385 17.2334L22.4996 9.45558C22.5165 9.37276 22.5143 9.28717 22.4931 9.20534C22.4719 9.12351 22.4323 9.04759 22.3774 8.98336Z" fill="white"/>
</g>
<defs>
<clipPath id="clip0_20_714">
<rect width="20" height="20" fill="white" transform="translate(4 6)"/>
</clipPath>
</defs>
</svg>
