<svg width="269" height="51" viewBox="0 0 269 51" fill="none" xmlns="http://www.w3.org/2000/svg">
<path d="M59.4992 22.972C59.0912 22.3 58.5272 21.784 57.8072 21.424C57.1112 21.064 56.2832 20.884 55.3232 20.884C53.5472 20.884 52.1432 21.46 51.1112 22.612C50.1032 23.764 49.5992 25.312 49.5992 27.256C49.5992 29.44 50.1392 31.108 51.2192 32.26C52.3232 33.388 53.9192 33.952 56.0072 33.952C58.4792 33.952 60.2432 32.836 61.2992 30.604H54.2072V25.528H67.3832V32.368C66.8312 33.712 66.0152 34.972 64.9352 36.148C63.8792 37.324 62.5352 38.296 60.9032 39.064C59.2712 39.808 57.4112 40.18 55.3232 40.18C52.7792 40.18 50.5232 39.64 48.5552 38.56C46.6112 37.456 45.0992 35.932 44.0192 33.988C42.9632 32.02 42.4352 29.776 42.4352 27.256C42.4352 24.76 42.9632 22.54 44.0192 20.596C45.0992 18.628 46.6112 17.104 48.5552 16.024C50.4992 14.92 52.7432 14.368 55.2872 14.368C58.4792 14.368 61.1192 15.136 63.2072 16.672C65.2952 18.208 66.5912 20.308 67.0952 22.972H59.4992ZM86.6013 35.86H77.6013L76.2333 40H68.8173L78.0693 14.62H86.2053L95.4213 40H87.9693L86.6013 35.86ZM84.8373 30.46L82.1013 22.252L79.4013 30.46H84.8373ZM107.765 14.62C110.429 14.62 112.757 15.16 114.749 16.24C116.765 17.296 118.313 18.784 119.393 20.704C120.473 22.624 121.013 24.82 121.013 27.292C121.013 29.74 120.461 31.924 119.357 33.844C118.277 35.764 116.729 37.276 114.713 38.38C112.721 39.46 110.405 40 107.765 40H97.7211V14.62H107.765ZM107.225 33.772C109.289 33.772 110.909 33.208 112.085 32.08C113.261 30.952 113.849 29.356 113.849 27.292C113.849 25.204 113.261 23.596 112.085 22.468C110.909 21.316 109.289 20.74 107.225 20.74H104.777V33.772H107.225ZM140.66 40.252C137.708 40.252 135.284 39.556 133.388 38.164C131.492 36.748 130.472 34.732 130.328 32.116H137.852C137.924 33.004 138.188 33.652 138.644 34.06C139.1 34.468 139.688 34.672 140.408 34.672C141.056 34.672 141.584 34.516 141.992 34.204C142.424 33.868 142.64 33.412 142.64 32.836C142.64 32.092 142.292 31.516 141.596 31.108C140.9 30.7 139.772 30.244 138.212 29.74C136.556 29.188 135.212 28.66 134.18 28.156C133.172 27.628 132.284 26.872 131.516 25.888C130.772 24.88 130.4 23.572 130.4 21.964C130.4 20.332 130.808 18.94 131.624 17.788C132.44 16.612 133.568 15.724 135.008 15.124C136.448 14.524 138.08 14.224 139.904 14.224C142.856 14.224 145.208 14.92 146.96 16.312C148.736 17.68 149.684 19.612 149.804 22.108H142.136C142.112 21.34 141.872 20.764 141.416 20.38C140.984 19.996 140.42 19.804 139.724 19.804C139.196 19.804 138.764 19.96 138.428 20.272C138.092 20.584 137.924 21.028 137.924 21.604C137.924 22.084 138.104 22.504 138.464 22.864C138.848 23.2 139.316 23.5 139.868 23.764C140.42 24.004 141.236 24.316 142.316 24.7C143.924 25.252 145.244 25.804 146.276 26.356C147.332 26.884 148.232 27.64 148.976 28.624C149.744 29.584 150.128 30.808 150.128 32.296C150.128 33.808 149.744 35.164 148.976 36.364C148.232 37.564 147.14 38.512 145.7 39.208C144.284 39.904 142.604 40.252 140.66 40.252ZM165.325 33.988V40H162.265C157.105 40 154.525 37.444 154.525 32.332V25.672H152.041V19.804H154.525V14.908H161.617V19.804H165.289V25.672H161.617V32.44C161.617 32.992 161.737 33.388 161.977 33.628C162.241 33.868 162.673 33.988 163.273 33.988H165.325ZM177.957 40.252C175.941 40.252 174.129 39.832 172.521 38.992C170.937 38.152 169.689 36.952 168.777 35.392C167.865 33.832 167.409 31.996 167.409 29.884C167.409 27.796 167.865 25.972 168.777 24.412C169.713 22.852 170.973 21.652 172.557 20.812C174.165 19.972 175.977 19.552 177.993 19.552C180.009 19.552 181.809 19.972 183.393 20.812C185.001 21.652 186.261 22.852 187.173 24.412C188.109 25.972 188.577 27.796 188.577 29.884C188.577 31.972 188.109 33.808 187.173 35.392C186.261 36.952 185.001 38.152 183.393 38.992C181.785 39.832 179.973 40.252 177.957 40.252ZM177.957 34.132C178.941 34.132 179.757 33.772 180.405 33.052C181.077 32.308 181.413 31.252 181.413 29.884C181.413 28.516 181.077 27.472 180.405 26.752C179.757 26.032 178.953 25.672 177.993 25.672C177.033 25.672 176.229 26.032 175.581 26.752C174.933 27.472 174.609 28.516 174.609 29.884C174.609 31.276 174.921 32.332 175.545 33.052C176.169 33.772 176.973 34.132 177.957 34.132ZM198.504 23.368C199.296 22.216 200.256 21.304 201.384 20.632C202.512 19.96 203.724 19.624 205.02 19.624V27.148H203.04C201.504 27.148 200.364 27.448 199.62 28.048C198.876 28.648 198.504 29.692 198.504 31.18V40H191.448V19.804H198.504V23.368ZM226.845 29.668C226.845 30.22 226.809 30.772 226.737 31.324H213.381C213.453 32.428 213.753 33.256 214.281 33.808C214.833 34.336 215.529 34.6 216.369 34.6C217.545 34.6 218.385 34.072 218.889 33.016H226.413C226.101 34.408 225.489 35.656 224.577 36.76C223.689 37.84 222.561 38.692 221.193 39.316C219.825 39.94 218.313 40.252 216.657 40.252C214.665 40.252 212.889 39.832 211.329 38.992C209.793 38.152 208.581 36.952 207.693 35.392C206.829 33.832 206.397 31.996 206.397 29.884C206.397 27.772 206.829 25.948 207.693 24.412C208.557 22.852 209.757 21.652 211.293 20.812C212.853 19.972 214.641 19.552 216.657 19.552C218.649 19.552 220.413 19.96 221.949 20.776C223.485 21.592 224.685 22.768 225.549 24.304C226.413 25.816 226.845 27.604 226.845 29.668ZM219.645 27.904C219.645 27.04 219.357 26.368 218.781 25.888C218.205 25.384 217.485 25.132 216.621 25.132C215.757 25.132 215.049 25.372 214.497 25.852C213.945 26.308 213.585 26.992 213.417 27.904H219.645Z" fill="#AC3B61"/>
<path d="M20.0003 27.9266C19.9598 32.3447 23.5085 35.9591 27.9266 35.9997C32.3447 36.0402 35.9591 32.4915 35.9997 28.0734C36.0402 23.6553 32.4915 20.0409 28.0734 20.0003C23.6553 19.9598 20.0409 23.5085 20.0003 27.9266ZM249 30.0275L234.08 21.23L233.921 38.5498L249 30.0275ZM27.9862 29.4999L196.88 31.0494L196.908 28.0496L28.0138 26.5001L27.9862 29.4999ZM196.88 31.0494L235.487 31.4036L235.514 28.4037L196.908 28.0496L196.88 31.0494Z" fill="#123C69"/>
</svg>
