<svg width="222" height="30" viewBox="0 0 222 30" fill="none" xmlns="http://www.w3.org/2000/svg">
<path d="M63 8.04V10.3H57.18V13.88H61.64V16.1H57.18V22H54.38V8.04H63ZM64.2655 16.42C64.2655 15.3 64.4855 14.3067 64.9255 13.44C65.3788 12.5733 65.9855 11.9067 66.7455 11.44C67.5188 10.9733 68.3788 10.74 69.3255 10.74C70.1521 10.74 70.8721 10.9067 71.4855 11.24C72.1121 11.5733 72.6121 11.9933 72.9855 12.5V10.92H75.8055V22H72.9855V20.38C72.6255 20.9 72.1255 21.3333 71.4855 21.68C70.8588 22.0133 70.1321 22.18 69.3055 22.18C68.3721 22.18 67.5188 21.94 66.7455 21.46C65.9855 20.98 65.3788 20.3067 64.9255 19.44C64.4855 18.56 64.2655 17.5533 64.2655 16.42ZM72.9855 16.46C72.9855 15.78 72.8521 15.2 72.5855 14.72C72.3188 14.2267 71.9588 13.8533 71.5055 13.6C71.0521 13.3333 70.5655 13.2 70.0455 13.2C69.5255 13.2 69.0455 13.3267 68.6055 13.58C68.1655 13.8333 67.8055 14.2067 67.5255 14.7C67.2588 15.18 67.1255 15.7533 67.1255 16.42C67.1255 17.0867 67.2588 17.6733 67.5255 18.18C67.8055 18.6733 68.1655 19.0533 68.6055 19.32C69.0588 19.5867 69.5388 19.72 70.0455 19.72C70.5655 19.72 71.0521 19.5933 71.5055 19.34C71.9588 19.0733 72.3188 18.7 72.5855 18.22C72.8521 17.7267 72.9855 17.14 72.9855 16.46ZM83.1602 19.42L85.9602 10.92H88.9402L84.8402 22H81.4402L77.3602 10.92H80.3602L83.1602 19.42ZM98.0784 7.2V22H95.2784V7.2H98.0784ZM102.265 9.6C101.772 9.6 101.358 9.44667 101.025 9.14C100.705 8.82 100.545 8.42667 100.545 7.96C100.545 7.49333 100.705 7.10667 101.025 6.8C101.358 6.48 101.772 6.32 102.265 6.32C102.758 6.32 103.165 6.48 103.485 6.8C103.818 7.10667 103.985 7.49333 103.985 7.96C103.985 8.42667 103.818 8.82 103.485 9.14C103.165 9.44667 102.758 9.6 102.265 9.6ZM103.645 10.92V22H100.845V10.92H103.645ZM110.651 22.18C109.745 22.18 108.931 22.02 108.211 21.7C107.491 21.3667 106.918 20.92 106.491 20.36C106.078 19.8 105.851 19.18 105.811 18.5H108.631C108.685 18.9267 108.891 19.28 109.251 19.56C109.625 19.84 110.085 19.98 110.631 19.98C111.165 19.98 111.578 19.8733 111.871 19.66C112.178 19.4467 112.331 19.1733 112.331 18.84C112.331 18.48 112.145 18.2133 111.771 18.04C111.411 17.8533 110.831 17.6533 110.031 17.44C109.205 17.24 108.525 17.0333 107.991 16.82C107.471 16.6067 107.018 16.28 106.631 15.84C106.258 15.4 106.071 14.8067 106.071 14.06C106.071 13.4467 106.245 12.8867 106.591 12.38C106.951 11.8733 107.458 11.4733 108.111 11.18C108.778 10.8867 109.558 10.74 110.451 10.74C111.771 10.74 112.825 11.0733 113.611 11.74C114.398 12.3933 114.831 13.28 114.911 14.4H112.231C112.191 13.96 112.005 13.6133 111.671 13.36C111.351 13.0933 110.918 12.96 110.371 12.96C109.865 12.96 109.471 13.0533 109.191 13.24C108.925 13.4267 108.791 13.6867 108.791 14.02C108.791 14.3933 108.978 14.68 109.351 14.88C109.725 15.0667 110.305 15.26 111.091 15.46C111.891 15.66 112.551 15.8667 113.071 16.08C113.591 16.2933 114.038 16.6267 114.411 17.08C114.798 17.52 114.998 18.1067 115.011 18.84C115.011 19.48 114.831 20.0533 114.471 20.56C114.125 21.0667 113.618 21.4667 112.951 21.76C112.298 22.04 111.531 22.18 110.651 22.18ZM120.57 13.22V18.58C120.57 18.9533 120.656 19.2267 120.83 19.4C121.016 19.56 121.323 19.64 121.75 19.64H123.05V22H121.29C118.93 22 117.75 20.8533 117.75 18.56V13.22H116.43V10.92H117.75V8.18H120.57V10.92H123.05V13.22H120.57Z" fill="#AC3B61"/>
<ellipse cx="14.0529" cy="15" rx="14.0529" ry="15" fill="#123C69"/>
<path d="M10.4864 8C8.00868 8 6 10.0087 6 12.4864C6 16.9728 11.3021 21.0513 14.1571 22C17.0121 21.0513 22.3142 16.9728 22.3142 12.4864C22.3142 10.0087 20.3055 8 17.8278 8C16.3106 8 14.9687 8.75331 14.1571 9.90631C13.7434 9.31705 13.1938 8.83614 12.5548 8.50431C11.9159 8.17248 11.2064 7.99949 10.4864 8Z" stroke="white" stroke-linecap="round" stroke-linejoin="round"/>
</svg>
