<svg width="223" height="30" viewBox="0 0 223 30" fill="none" xmlns="http://www.w3.org/2000/svg">
<ellipse cx="14.0529" cy="15" rx="14.0529" ry="15" fill="#123C69"/>
<path d="M61.86 22.14C60.5533 22.14 59.3533 21.8333 58.26 21.22C57.1667 20.6067 56.3 19.76 55.66 18.68C55.02 17.5867 54.7 16.3533 54.7 14.98C54.7 13.62 55.02 12.4 55.66 11.32C56.3 10.2267 57.1667 9.37333 58.26 8.76C59.3533 8.14667 60.5533 7.84 61.86 7.84C63.18 7.84 64.38 8.14667 65.46 8.76C66.5533 9.37333 67.4133 10.2267 68.04 11.32C68.68 12.4 69 13.62 69 14.98C69 16.3533 68.68 17.5867 68.04 18.68C67.4133 19.76 66.5533 20.6067 65.46 21.22C64.3667 21.8333 63.1667 22.14 61.86 22.14ZM61.86 19.64C62.7 19.64 63.44 19.4533 64.08 19.08C64.72 18.6933 65.22 18.1467 65.58 17.44C65.94 16.7333 66.12 15.9133 66.12 14.98C66.12 14.0467 65.94 13.2333 65.58 12.54C65.22 11.8333 64.72 11.2933 64.08 10.92C63.44 10.5467 62.7 10.36 61.86 10.36C61.02 10.36 60.2733 10.5467 59.62 10.92C58.98 11.2933 58.48 11.8333 58.12 12.54C57.76 13.2333 57.58 14.0467 57.58 14.98C57.58 15.9133 57.76 16.7333 58.12 17.44C58.48 18.1467 58.98 18.6933 59.62 19.08C60.2733 19.4533 61.02 19.64 61.86 19.64ZM73.8831 12.64C74.2431 12.0533 74.7098 11.5933 75.2831 11.26C75.8698 10.9267 76.5365 10.76 77.2831 10.76V13.7H76.5431C75.6631 13.7 74.9965 13.9067 74.5431 14.32C74.1031 14.7333 73.8831 15.4533 73.8831 16.48V22H71.0831V10.92H73.8831V12.64ZM78.4491 16.42C78.4491 15.3 78.6691 14.3067 79.1091 13.44C79.5624 12.5733 80.1757 11.9067 80.9491 11.44C81.7224 10.9733 82.5824 10.74 83.5291 10.74C84.2491 10.74 84.9357 10.9 85.5891 11.22C86.2424 11.5267 86.7624 11.94 87.1491 12.46V7.2H89.9891V22H87.1491V20.36C86.8024 20.9067 86.3157 21.3467 85.6891 21.68C85.0624 22.0133 84.3357 22.18 83.5091 22.18C82.5757 22.18 81.7224 21.94 80.9491 21.46C80.1757 20.98 79.5624 20.3067 79.1091 19.44C78.6691 18.56 78.4491 17.5533 78.4491 16.42ZM87.1691 16.46C87.1691 15.78 87.0357 15.2 86.7691 14.72C86.5024 14.2267 86.1424 13.8533 85.6891 13.6C85.2357 13.3333 84.7491 13.2 84.2291 13.2C83.7091 13.2 83.2291 13.3267 82.7891 13.58C82.3491 13.8333 81.9891 14.2067 81.7091 14.7C81.4424 15.18 81.3091 15.7533 81.3091 16.42C81.3091 17.0867 81.4424 17.6733 81.7091 18.18C81.9891 18.6733 82.3491 19.0533 82.7891 19.32C83.2424 19.5867 83.7224 19.72 84.2291 19.72C84.7491 19.72 85.2357 19.5933 85.6891 19.34C86.1424 19.0733 86.5024 18.7 86.7691 18.22C87.0357 17.7267 87.1691 17.14 87.1691 16.46ZM103.024 16.22C103.024 16.62 102.997 16.98 102.944 17.3H94.8438C94.9104 18.1 95.1904 18.7267 95.6838 19.18C96.1771 19.6333 96.7838 19.86 97.5038 19.86C98.5438 19.86 99.2838 19.4133 99.7238 18.52H102.744C102.424 19.5867 101.81 20.4667 100.904 21.16C99.9971 21.84 98.8838 22.18 97.5638 22.18C96.4971 22.18 95.5371 21.9467 94.6838 21.48C93.8438 21 93.1838 20.3267 92.7038 19.46C92.2371 18.5933 92.0037 17.5933 92.0037 16.46C92.0037 15.3133 92.2371 14.3067 92.7038 13.44C93.1704 12.5733 93.8238 11.9067 94.6638 11.44C95.5038 10.9733 96.4704 10.74 97.5638 10.74C98.6171 10.74 99.5571 10.9667 100.384 11.42C101.224 11.8733 101.87 12.52 102.324 13.36C102.79 14.1867 103.024 15.14 103.024 16.22ZM100.124 15.42C100.11 14.7 99.8504 14.1267 99.3438 13.7C98.8371 13.26 98.2171 13.04 97.4838 13.04C96.7904 13.04 96.2038 13.2533 95.7238 13.68C95.2571 14.0933 94.9704 14.6733 94.8638 15.42H100.124ZM107.868 12.64C108.228 12.0533 108.694 11.5933 109.268 11.26C109.854 10.9267 110.521 10.76 111.268 10.76V13.7H110.528C109.648 13.7 108.981 13.9067 108.528 14.32C108.088 14.7333 107.868 15.4533 107.868 16.48V22H105.068V10.92H107.868V12.64ZM117.393 22.18C116.487 22.18 115.673 22.02 114.953 21.7C114.233 21.3667 113.66 20.92 113.233 20.36C112.82 19.8 112.593 19.18 112.553 18.5H115.373C115.427 18.9267 115.633 19.28 115.993 19.56C116.367 19.84 116.827 19.98 117.373 19.98C117.907 19.98 118.32 19.8733 118.613 19.66C118.92 19.4467 119.073 19.1733 119.073 18.84C119.073 18.48 118.887 18.2133 118.513 18.04C118.153 17.8533 117.573 17.6533 116.773 17.44C115.947 17.24 115.267 17.0333 114.733 16.82C114.213 16.6067 113.76 16.28 113.373 15.84C113 15.4 112.813 14.8067 112.813 14.06C112.813 13.4467 112.987 12.8867 113.333 12.38C113.693 11.8733 114.2 11.4733 114.853 11.18C115.52 10.8867 116.3 10.74 117.193 10.74C118.513 10.74 119.567 11.0733 120.353 11.74C121.14 12.3933 121.573 13.28 121.653 14.4H118.973C118.933 13.96 118.747 13.6133 118.413 13.36C118.093 13.0933 117.66 12.96 117.113 12.96C116.607 12.96 116.213 13.0533 115.933 13.24C115.667 13.4267 115.533 13.6867 115.533 14.02C115.533 14.3933 115.72 14.68 116.093 14.88C116.467 15.0667 117.047 15.26 117.833 15.46C118.633 15.66 119.293 15.8667 119.813 16.08C120.333 16.2933 120.78 16.6267 121.153 17.08C121.54 17.52 121.74 18.1067 121.753 18.84C121.753 19.48 121.573 20.0533 121.213 20.56C120.867 21.0667 120.36 21.4667 119.693 21.76C119.04 22.04 118.273 22.18 117.393 22.18Z" fill="#AC3B61"/>
<path d="M12.7083 9H20.625V10.5H12.7083V9ZM12.7083 12H17.4583V13.5H12.7083V12ZM12.7083 16.5H20.625V18H12.7083V16.5ZM12.7083 19.5H17.4583V21H12.7083V19.5ZM6.375 9H11.125V13.5H6.375V9ZM7.95833 10.5V12H9.54167V10.5H7.95833ZM6.375 16.5H11.125V21H6.375V16.5ZM7.95833 18V19.5H9.54167V18H7.95833Z" fill="#FFF8F5"/>
</svg>
