<svg width="62" height="59" viewBox="0 0 62 59" fill="none" xmlns="http://www.w3.org/2000/svg">
<ellipse cx="31" cy="29.5" rx="31" ry="29.5" fill="#123C69"/>
<mask id="path-2-inside-1_132_1816" fill="white">
<path d="M9.45661 47.9812C9.61427 48.0198 9.78176 47.9985 9.92279 47.9218C10.0638 47.8452 10.167 47.7195 10.21 47.5718C11.478 43.1279 16.6311 41.9761 19.7112 41.2869C20.483 41.1146 21.0924 40.9781 21.4888 40.8174C24.9973 39.3869 26.1409 37.0857 26.4831 35.4067C26.5035 35.3068 26.4954 35.2036 26.4598 35.1076C26.4241 35.0115 26.3621 34.926 26.28 34.8597C24.4532 33.3784 22.9119 31.1546 21.9394 28.5967C21.9119 28.5234 21.8688 28.4561 21.8126 28.399C20.5261 27.0853 19.7875 25.6965 19.7875 24.5898C19.7875 23.9434 20.0473 23.5098 20.632 23.1825C20.7196 23.1333 20.7928 23.0645 20.845 22.9821C20.8972 22.8997 20.9268 22.8065 20.9311 22.7107C21.2032 16.8201 25.6694 12.183 31.1476 12.1529L31.2793 12.161C36.7845 12.2327 41.2224 16.9693 41.3812 22.9431C41.3834 23.0248 41.4041 23.1051 41.4419 23.1786C41.4797 23.2522 41.5337 23.3174 41.6003 23.3699C41.9856 23.6763 42.1654 24.0648 42.1654 24.5922C42.1654 25.5184 41.6397 26.6575 40.6869 27.7977C40.6415 27.8525 40.6065 27.9143 40.5835 27.9804C39.5987 30.913 37.8309 33.5021 35.7356 35.0864C35.6489 35.1522 35.5827 35.2389 35.5441 35.3372C35.5055 35.4356 35.496 35.5419 35.5165 35.6449C35.8588 37.3228 37.0024 39.6229 40.5109 41.0556C40.9257 41.2244 41.5696 41.3563 42.3857 41.5216C45.435 42.1415 50.5377 43.181 51.7897 47.5718C51.8107 47.6452 51.8469 47.7139 51.8962 47.7741C51.9455 47.8344 52.0069 47.8849 52.077 47.9228C52.147 47.9607 52.2244 47.9852 52.3046 47.9951C52.3847 48.0049 52.4662 47.9998 52.5443 47.98C52.6224 47.9603 52.6955 47.9263 52.7596 47.88C52.8237 47.8337 52.8775 47.776 52.9178 47.7102C52.9582 47.6443 52.9844 47.5717 52.9948 47.4964C53.0053 47.4211 52.9999 47.3445 52.9788 47.2712C51.5324 42.1981 45.7514 41.0221 42.6467 40.3907C41.9266 40.2438 41.3049 40.1178 41.002 39.9929C38.7123 39.0585 37.3015 37.635 36.803 35.7547C38.929 34.0398 40.7078 31.394 41.7247 28.4267C42.8043 27.1084 43.3976 25.7509 43.3976 24.591C43.3976 23.8174 43.1317 23.1721 42.6049 22.6679C42.3119 16.1875 37.3889 11.0844 31.2793 11.0023L31.0959 11C25.097 11.0301 20.1531 15.9991 19.721 22.3673C18.9504 22.8992 18.5589 23.6451 18.5589 24.5922C18.5589 25.9602 19.3825 27.5964 20.824 29.0974C21.82 31.6681 23.3637 33.9265 25.2016 35.5073C24.7055 37.3945 23.2935 38.8226 20.9989 39.7581C20.7022 39.8796 20.1113 40.0126 19.4268 40.1652C16.2987 40.8637 10.4784 42.1646 9.02082 47.2735C8.97873 47.4216 9.00099 47.5794 9.08272 47.7121C9.16444 47.8448 9.29893 47.9416 9.45661 47.9812V47.9812Z"/>
</mask>
<path d="M9.45661 47.9812C9.61427 48.0198 9.78176 47.9985 9.92279 47.9218C10.0638 47.8452 10.167 47.7195 10.21 47.5718C11.478 43.1279 16.6311 41.9761 19.7112 41.2869C20.483 41.1146 21.0924 40.9781 21.4888 40.8174C24.9973 39.3869 26.1409 37.0857 26.4831 35.4067C26.5035 35.3068 26.4954 35.2036 26.4598 35.1076C26.4241 35.0115 26.3621 34.926 26.28 34.8597C24.4532 33.3784 22.9119 31.1546 21.9394 28.5967C21.9119 28.5234 21.8688 28.4561 21.8126 28.399C20.5261 27.0853 19.7875 25.6965 19.7875 24.5898C19.7875 23.9434 20.0473 23.5098 20.632 23.1825C20.7196 23.1333 20.7928 23.0645 20.845 22.9821C20.8972 22.8997 20.9268 22.8065 20.9311 22.7107C21.2032 16.8201 25.6694 12.183 31.1476 12.1529L31.2793 12.161C36.7845 12.2327 41.2224 16.9693 41.3812 22.9431C41.3834 23.0248 41.4041 23.1051 41.4419 23.1786C41.4797 23.2522 41.5337 23.3174 41.6003 23.3699C41.9856 23.6763 42.1654 24.0648 42.1654 24.5922C42.1654 25.5184 41.6397 26.6575 40.6869 27.7977C40.6415 27.8525 40.6065 27.9143 40.5835 27.9804C39.5987 30.913 37.8309 33.5021 35.7356 35.0864C35.6489 35.1522 35.5827 35.2389 35.5441 35.3372C35.5055 35.4356 35.496 35.5419 35.5165 35.6449C35.8588 37.3228 37.0024 39.6229 40.5109 41.0556C40.9257 41.2244 41.5696 41.3563 42.3857 41.5216C45.435 42.1415 50.5377 43.181 51.7897 47.5718C51.8107 47.6452 51.8469 47.7139 51.8962 47.7741C51.9455 47.8344 52.0069 47.8849 52.077 47.9228C52.147 47.9607 52.2244 47.9852 52.3046 47.9951C52.3847 48.0049 52.4662 47.9998 52.5443 47.98C52.6224 47.9603 52.6955 47.9263 52.7596 47.88C52.8237 47.8337 52.8775 47.776 52.9178 47.7102C52.9582 47.6443 52.9844 47.5717 52.9948 47.4964C53.0053 47.4211 52.9999 47.3445 52.9788 47.2712C51.5324 42.1981 45.7514 41.0221 42.6467 40.3907C41.9266 40.2438 41.3049 40.1178 41.002 39.9929C38.7123 39.0585 37.3015 37.635 36.803 35.7547C38.929 34.0398 40.7078 31.394 41.7247 28.4267C42.8043 27.1084 43.3976 25.7509 43.3976 24.591C43.3976 23.8174 43.1317 23.1721 42.6049 22.6679C42.3119 16.1875 37.3889 11.0844 31.2793 11.0023L31.0959 11C25.097 11.0301 20.1531 15.9991 19.721 22.3673C18.9504 22.8992 18.5589 23.6451 18.5589 24.5922C18.5589 25.9602 19.3825 27.5964 20.824 29.0974C21.82 31.6681 23.3637 33.9265 25.2016 35.5073C24.7055 37.3945 23.2935 38.8226 20.9989 39.7581C20.7022 39.8796 20.1113 40.0126 19.4268 40.1652C16.2987 40.8637 10.4784 42.1646 9.02082 47.2735C8.97873 47.4216 9.00099 47.5794 9.08272 47.7121C9.16444 47.8448 9.29893 47.9416 9.45661 47.9812V47.9812Z" fill="white"/>
<path d="M10.21 47.5718L58.2151 61.5545L58.2535 61.4226L58.2912 61.2905L10.21 47.5718ZM19.7112 41.2869L8.81789 -7.51205L8.80545 -7.50927L8.79302 -7.50649L19.7112 41.2869ZM21.4888 40.8174L40.2778 87.1529L40.3218 87.135L40.3658 87.1171L21.4888 40.8174ZM26.4831 35.4067L75.4759 45.3924L75.477 45.3867L26.4831 35.4067ZM26.28 34.8597L-5.2112 73.6966L-5.17944 73.7223L-5.14764 73.748L26.28 34.8597ZM21.9394 28.5967L-24.8925 46.1118L-24.8449 46.2389L-24.7967 46.3658L21.9394 28.5967ZM21.8126 28.399L-13.9109 63.3823L-13.863 63.4312L-13.815 63.4799L21.8126 28.399ZM20.632 23.1825L45.0508 66.8142L45.0821 66.7967L45.1134 66.7791L20.632 23.1825ZM20.9311 22.7107L-29.0156 20.4039L-29.0169 20.431L-29.0181 20.458L20.9311 22.7107ZM31.1476 12.1529L34.2145 -37.7529L32.5454 -37.8555L30.8731 -37.8463L31.1476 12.1529ZM31.2793 12.161L28.2124 62.0669L29.4192 62.141L30.6282 62.1568L31.2793 12.161ZM41.3812 22.9431L-8.60114 24.2718L-8.60073 24.2871L-8.60032 24.3023L41.3812 22.9431ZM41.6003 23.3699L72.7228 -15.7631L72.6239 -15.8418L72.5245 -15.92L41.6003 23.3699ZM40.6869 27.7977L2.31993 -4.26441L2.24474 -4.17443L2.16997 -4.0841L40.6869 27.7977ZM40.5835 27.9804L-6.63108 11.5248L-6.72465 11.7933L-6.81515 12.0628L40.5835 27.9804ZM35.7356 35.0864L5.57965 -4.79617L5.54754 -4.77189L5.51546 -4.74755L35.7356 35.0864ZM35.5165 35.6449L-13.5173 45.4267L-13.4963 45.532L-13.4748 45.6372L35.5165 35.6449ZM40.5109 41.0556L21.6077 87.3446L21.6357 87.356L21.6637 87.3674L40.5109 41.0556ZM42.3857 41.5216L52.3455 -7.47636L52.3299 -7.47953L52.3143 -7.48268L42.3857 41.5216ZM51.7897 47.5718L3.70611 61.2821L3.71493 61.3131L3.7238 61.344L51.7897 47.5718ZM52.9788 47.2712L4.89521 60.9812L4.90407 61.0123L4.91298 61.0434L52.9788 47.2712ZM42.6467 40.3907L32.6559 89.3824L32.6692 89.3851L32.6824 89.3878L42.6467 40.3907ZM41.002 39.9929L60.0646 -6.23066L59.9789 -6.26604L59.893 -6.30109L41.002 39.9929ZM36.803 35.7547L5.41094 -3.16236L-19.8427 17.2082L-11.5269 48.5698L36.803 35.7547ZM41.7247 28.4267L3.04163 -3.25328L-2.65864 3.70707L-5.57515 12.2179L41.7247 28.4267ZM42.6049 22.6679L-7.34412 24.9262L-6.43921 44.9411L8.03634 58.793L42.6049 22.6679ZM31.2793 11.0023L31.9511 -38.9932L31.9304 -38.9935L31.9097 -38.9937L31.2793 11.0023ZM31.0959 11L31.7262 -38.996L31.2858 -39.0016L30.8453 -38.9994L31.0959 11ZM19.721 22.3673L48.1246 63.5162L67.9736 49.8152L69.6063 25.7521L19.721 22.3673ZM20.824 29.0974L67.4474 11.0347L63.8274 1.69072L56.8862 -5.53667L20.824 29.0974ZM25.2016 35.5073L73.5587 48.2193L81.5067 17.9846L57.8053 -2.40049L25.2016 35.5073ZM20.9989 39.7581L2.12269 -6.54186L2.09154 -6.52916L2.0604 -6.51641L20.9989 39.7581ZM19.4268 40.1652L8.54354 -8.63598L8.53081 -8.63313L19.4268 40.1652ZM9.02082 47.2735L-39.0607 33.556L-39.0679 33.5812L-39.075 33.6064L9.02082 47.2735ZM-2.43096 96.5475C9.65683 99.5062 22.5889 97.9438 33.7942 91.8554L-13.9486 3.9883C-3.02537 -1.94688 9.5717 -3.46665 21.3442 -0.585095L-2.43096 96.5475ZM33.7942 91.8554C45.0775 85.7246 54.2642 75.1185 58.2151 61.5545L-37.795 33.5892C-33.9302 20.3204 -24.9498 9.96584 -13.9486 3.9883L33.7942 91.8554ZM58.2912 61.2905C53.7834 77.0895 42.4098 84.8165 36.908 87.6086C32.3011 89.9464 28.3006 90.6014 30.6294 90.0803L8.79302 -7.50649C8.04168 -7.33837 -0.0754206 -5.76297 -8.34589 -1.56591C-17.5112 3.08529 -32.0954 13.6102 -37.8712 33.8532L58.2912 61.2905ZM30.6045 90.0858C30.7955 90.0432 31.902 89.8004 33.0433 89.5107C33.9813 89.2726 36.8678 88.5356 40.2778 87.1529L2.69986 -5.51807C4.37254 -6.19634 5.74413 -6.64017 6.57122 -6.89233C7.42893 -7.15382 8.09579 -7.3281 8.43832 -7.41505C8.98282 -7.55328 9.39868 -7.64169 8.81789 -7.51205L30.6045 90.0858ZM40.3658 87.1171C60.7337 78.8128 72.1051 61.93 75.4758 45.3924L-22.5096 25.4209C-21.3826 19.8918 -18.8919 13.2798 -13.9481 7.06829C-8.89908 0.724489 -2.82575 -3.2653 2.61182 -5.48227L40.3658 87.1171ZM75.477 45.3867C77.3703 36.0921 76.6011 26.504 73.3321 17.7011L-20.4126 52.514C-23.6103 43.9032 -24.3633 34.5215 -22.5107 25.4266L75.477 45.3867ZM73.3321 17.7011C70.0732 8.92543 64.5528 1.50324 57.7077 -4.02863L-5.14764 73.748C-11.8286 68.3488 -17.225 61.0976 -20.4126 52.514L73.3321 17.7011ZM57.7712 -3.97717C63.8444 0.947319 67.0312 6.50295 68.6754 10.8277L-24.7967 46.3658C-21.2074 55.8063 -14.9381 65.8094 -5.2112 73.6966L57.7712 -3.97717ZM68.7712 11.0816C66.2269 4.27854 62.3075 -1.73878 57.4402 -6.682L-13.815 63.4799C-18.57 58.6509 -22.403 52.7682 -24.8925 46.1118L68.7712 11.0816ZM57.536 -6.58437C59.5661 -4.51133 62.1579 -1.39595 64.4654 2.94396C66.5902 6.94036 69.7875 14.4631 69.7875 24.5898H-30.2125C-30.2125 45.1483 -18.6268 58.5666 -13.9109 63.3823L57.536 -6.58437ZM69.7875 24.5898C69.7875 31.1508 68.3955 40.2712 62.8686 49.4855C57.4178 58.5729 50.2484 63.9053 45.0508 66.8142L-3.78681 -20.4491C-9.56912 -17.213 -17.1608 -11.5002 -22.8876 -1.95254C-28.6906 7.722 -30.2125 17.3824 -30.2125 24.5898H69.7875ZM45.1134 66.7791C52.1916 62.8044 58.4517 57.0438 63.0725 49.756L-21.3825 -3.79177C-16.8661 -10.9149 -10.7524 -16.5377 -3.84935 -20.4141L45.1134 66.7791ZM63.0725 49.756C67.7077 42.4453 70.4764 33.9219 70.8804 24.9634L-29.0181 20.458C-28.6227 11.6911 -25.9133 3.35416 -21.3825 -3.79177L63.0725 49.756ZM70.8779 25.0175C70.0843 42.2008 55.9313 62.0176 31.422 62.1522L30.8731 -37.8463C-4.59242 -37.6517 -27.6779 -8.56067 -29.0156 20.4039L70.8779 25.0175ZM28.0807 62.0588L28.2124 62.0669L34.3462 -37.7448L34.2145 -37.7529L28.0807 62.0588ZM30.6282 62.1568C5.7303 61.8325 -8.14519 41.4236 -8.60114 24.2718L91.3635 21.6145C90.59 -7.48508 67.8387 -37.3671 31.9304 -37.8347L30.6282 62.1568ZM-8.60032 24.3023C-8.39202 31.9622 -6.44907 39.3735 -3.03621 46.0194L85.92 0.337925C89.2573 6.8367 91.1589 14.0874 91.3627 21.584L-8.60032 24.3023ZM-3.03621 46.0194C0.370063 52.6525 5.11033 58.279 10.6761 62.6597L72.5245 -15.92C77.957 -11.6442 82.5893 -6.14802 85.92 0.337925L-3.03621 46.0194ZM10.4778 62.5028C5.3654 58.4369 0.22671 52.6316 -3.35655 44.8816C-6.87311 37.2758 -7.83462 30.0852 -7.83462 24.5922H92.1654C92.1654 10.0586 85.9685 -5.2288 72.7228 -15.7631L10.4778 62.5028ZM-7.83462 24.5922C-7.83462 15.8839 -5.46331 9.16954 -3.61865 5.17071C-1.68109 0.970492 0.550064 -2.1465 2.31993 -4.26441L79.0539 59.8597C83.2563 54.8309 92.1654 42.5082 92.1654 24.5922H-7.83462ZM2.16997 -4.0841C-1.59895 0.469196 -4.61377 5.73672 -6.63108 11.5248L87.7981 44.4359C85.8268 50.0919 82.8819 55.2358 79.2038 59.6794L2.16997 -4.0841ZM-6.81515 12.0628C-5.87429 9.26115 -4.53104 6.50364 -2.7249 3.85675C-0.958147 1.26759 1.69349 -1.85776 5.57965 -4.79617L65.8916 74.9689C77.3454 66.3085 84.3682 54.6592 87.9821 43.8979L-6.81515 12.0628ZM5.51546 -4.74755C-1.65082 0.689183 -7.49824 8.14544 -11.002 17.0762L82.0901 53.5983C78.6636 62.3323 72.9485 69.6152 65.9558 74.9203L5.51546 -4.74755ZM-11.002 17.0762C-14.5177 26.0376 -15.4228 35.8747 -13.5173 45.4267L84.5503 25.863C86.4148 35.209 85.5287 44.8336 82.0901 53.5983L-11.002 17.0762ZM-13.4748 45.6372C-10.1 62.1836 1.27486 79.0412 21.6077 87.3446L59.414 -5.23338C64.8378 -3.01846 70.9014 0.965679 75.9455 7.30234C80.886 13.5088 83.3791 20.1182 84.5079 25.6526L-13.4748 45.6372ZM21.6637 87.3674C25.4766 88.9191 28.714 89.6922 29.7505 89.9382C31.0251 90.2408 32.2448 90.4829 32.4572 90.526L52.3143 -7.48268C51.7105 -7.60503 52.2002 -7.51149 52.8451 -7.35839C53.2435 -7.26384 54.0051 -7.07652 54.9799 -6.78967C55.9198 -6.51307 57.4726 -6.02349 59.358 -5.25622L21.6637 87.3674ZM32.426 90.5196C34.7531 90.9926 30.5992 90.3968 25.807 88.0547C20.0245 85.2286 8.30285 77.4035 3.70611 61.2821L99.8732 33.8615C94.0245 13.3494 79.1256 2.80911 69.7164 -1.78941C61.2975 -5.90399 53.0677 -7.32955 52.3455 -7.47636L32.426 90.5196ZM3.7238 61.344C5.65757 68.093 8.9352 74.2293 13.2093 79.4495L90.583 16.0988C94.7585 21.1986 97.9638 27.1973 99.8555 33.7997L3.7238 61.344ZM13.2093 79.4495C17.4764 84.6612 22.6383 88.8449 28.2877 91.9008L75.8662 3.94467C81.3755 6.92484 86.4145 11.0075 90.583 16.0988L13.2093 79.4495ZM28.2877 91.9008C33.9329 94.9545 40.0263 96.8641 46.2202 97.6235L58.3889 -1.63337C64.4225 -0.893667 70.3612 0.966819 75.8662 3.94467L28.2877 91.9008ZM46.2202 97.6235C52.413 98.3827 58.7133 97.9936 64.8001 96.4547L40.2885 -0.494641C46.2191 -1.99406 52.3564 -2.37293 58.3889 -1.63337L46.2202 97.6235ZM64.8001 96.4547C70.8881 94.9155 76.7583 92.2256 82.0407 88.4092L23.4786 7.35076C28.6328 3.62698 34.3567 1.0051 40.2885 -0.494641L64.8001 96.4547ZM82.0407 88.4092C87.3294 84.5884 91.9673 79.6791 95.5454 73.8423L10.2903 21.578C13.7877 15.8729 18.3181 11.079 23.4786 7.35076L82.0407 88.4092ZM95.5454 73.8423C99.1295 67.9958 101.546 61.3832 102.519 54.3772L3.47054 40.6156C4.42301 33.7602 6.78686 27.2929 10.2903 21.578L95.5454 73.8423ZM102.519 54.3772C103.493 47.3679 102.981 40.2569 101.045 33.499L4.91298 61.0434C3.0187 54.4322 2.51761 47.4742 3.47054 40.6156L102.519 54.3772ZM101.062 33.5612C95.2314 13.1103 80.5399 2.31623 70.7953 -2.55606C62.0337 -6.93684 53.5215 -8.42121 52.611 -8.60637L32.6824 89.3878C34.8766 89.834 30.8072 89.2533 26.074 86.8867C20.3576 84.0285 9.27986 76.359 4.89521 60.9812L101.062 33.5612ZM52.6375 -8.60098C52.0567 -8.71943 52.4392 -8.64502 52.928 -8.53205C53.2235 -8.46375 53.9391 -8.29514 54.8785 -8.02976C55.6496 -7.81193 57.615 -7.2409 60.0646 -6.23066L21.9394 86.2165C26.2801 88.0065 30.1176 88.8321 30.4078 88.8992C31.4631 89.1431 32.5166 89.354 32.6559 89.3824L52.6375 -8.60098ZM59.893 -6.30109C63.5429 -4.81168 68.7282 -2.03038 73.7483 3.03609C79.0239 8.36042 83.0777 15.189 85.1328 22.9397L-11.5269 48.5698C-5.94109 69.6357 9.64857 81.2014 22.1111 86.2869L59.893 -6.30109ZM68.195 74.6718C78.6769 66.2167 85.4057 55.1957 89.0245 44.6356L-5.57515 12.2179C-4.68589 9.62286 -3.4481 7.09528 -1.8239 4.67764C-0.226966 2.30059 2.09221 -0.485346 5.41094 -3.16236L68.195 74.6718ZM80.4077 60.1067C85.4471 53.9534 93.3976 41.6751 93.3976 24.591H-6.60235C-6.60235 16.7909 -4.66002 10.5748 -2.86042 6.451C-1.01768 2.22837 1.17764 -0.977246 3.04163 -3.25328L80.4077 60.1067ZM93.3976 24.591C93.3976 11.1104 88.2133 -2.89286 77.1734 -13.4571L8.03634 58.793C3.50982 54.4615 -0.380458 49.0059 -3.02781 42.5835C-5.6505 36.221 -6.60235 30.0122 -6.60235 24.591H93.3976ZM92.5538 20.4097C91.1981 -9.57697 67.3836 -38.517 31.9511 -38.9932L30.6074 60.9978C7.39423 60.6859 -6.57435 41.9521 -7.34412 24.9262L92.5538 20.4097ZM31.9097 -38.9937L31.7262 -38.996L30.4655 60.996L30.6489 60.9983L31.9097 -38.9937ZM30.8453 -38.9994C-4.21133 -38.8237 -28.1582 -10.5826 -30.1643 18.9825L69.6063 25.7521C68.4645 42.5807 54.4053 60.8838 31.3464 60.9994L30.8453 -38.9994ZM-8.68251 -18.7817C-23.0674 -8.85241 -31.4411 7.32453 -31.4411 24.5922H68.5589C68.5589 31.1755 67.1463 38.8684 63.1581 46.4947C59.1646 54.131 53.6239 59.7203 48.1246 63.5162L-8.68251 -18.7817ZM-31.4411 24.5922C-31.4411 44.2358 -21.0479 57.6822 -15.2381 63.7315L56.8862 -5.53667C59.0421 -3.29191 61.6114 -0.0615782 63.8201 4.33014C65.9287 8.52293 68.5589 15.4998 68.5589 24.5922H-31.4411ZM-25.7993 47.1601C-22.2364 56.3568 -16.2688 65.789 -7.40207 73.415L57.8053 -2.40049C62.9961 2.06403 65.8763 6.97933 67.4474 11.0347L-25.7993 47.1601ZM-23.1554 22.7953C-21.1159 15.0368 -17.0699 8.18521 -11.7811 2.83591C-6.74854 -2.25427 -1.54353 -5.04717 2.12269 -6.54186L39.875 86.0582C52.396 80.9534 68.0075 69.3362 73.5587 48.2193L-23.1554 22.7953ZM2.0604 -6.51641C4.16054 -7.37592 5.83712 -7.8862 6.52692 -8.09048C7.35076 -8.33445 7.97777 -8.49382 8.24625 -8.56085C8.70206 -8.67466 9.02478 -8.7433 8.54354 -8.63597L30.3101 88.9664C30.5133 88.921 31.4737 88.7096 32.4702 88.4608C32.8386 88.3688 36.1501 87.5827 39.9373 86.0327L2.0604 -6.51641ZM8.53081 -8.63313C7.57262 -8.41918 -0.807289 -6.78501 -9.40893 -2.32725C-18.8826 2.58243 -33.295 13.3464 -39.0607 33.556L57.1023 60.991C52.7942 76.0917 42.0208 83.6507 36.6037 86.4581C32.0586 88.8136 28.1529 89.448 30.3228 88.9635L8.53081 -8.63313ZM-39.075 33.6064C-43.0004 47.42 -40.8216 62.0273 -33.4928 73.929L51.6582 21.4952C58.8236 33.1315 60.9578 47.4232 57.1167 60.9406L-39.075 33.6064ZM-33.4928 73.929C-26.2507 85.6899 -14.9212 93.413 -2.71693 96.4766L21.6302 -0.514205C33.5191 2.47021 44.5796 9.99972 51.6582 21.4952L-33.4928 73.929Z" fill="white" mask="url(#path-2-inside-1_132_1816)"/>
</svg>
