<svg width="122" height="30" viewBox="0 0 122 30" fill="none" xmlns="http://www.w3.org/2000/svg">
<path d="M64.56 12.36C64.56 13.1067 64.38 13.8067 64.02 14.46C63.6733 15.1133 63.12 15.64 62.36 16.04C61.6133 16.44 60.6667 16.64 59.52 16.64H57.18V22H54.38V8.04H59.52C60.6 8.04 61.52 8.22667 62.28 8.6C63.04 8.97333 63.6067 9.48667 63.98 10.14C64.3667 10.7933 64.56 11.5333 64.56 12.36ZM59.4 14.38C60.1733 14.38 60.7467 14.2067 61.12 13.86C61.4933 13.5 61.68 13 61.68 12.36C61.68 11 60.92 10.32 59.4 10.32H57.18V14.38H59.4ZM69.348 12.64C69.708 12.0533 70.1746 11.5933 70.748 11.26C71.3346 10.9267 72.0013 10.76 72.748 10.76V13.7H72.008C71.128 13.7 70.4613 13.9067 70.008 14.32C69.568 14.7333 69.348 15.4533 69.348 16.48V22H66.548V10.92H69.348V12.64ZM79.5539 22.18C78.4872 22.18 77.5272 21.9467 76.6739 21.48C75.8206 21 75.1472 20.3267 74.6539 19.46C74.1739 18.5933 73.9339 17.5933 73.9339 16.46C73.9339 15.3267 74.1806 14.3267 74.6739 13.46C75.1806 12.5933 75.8672 11.9267 76.7339 11.46C77.6006 10.98 78.5672 10.74 79.6339 10.74C80.7006 10.74 81.6672 10.98 82.5339 11.46C83.4006 11.9267 84.0806 12.5933 84.5739 13.46C85.0806 14.3267 85.3339 15.3267 85.3339 16.46C85.3339 17.5933 85.0739 18.5933 84.5539 19.46C84.0472 20.3267 83.3539 21 82.4739 21.48C81.6072 21.9467 80.6339 22.18 79.5539 22.18ZM79.5539 19.74C80.0606 19.74 80.5339 19.62 80.9739 19.38C81.4272 19.1267 81.7872 18.7533 82.0539 18.26C82.3206 17.7667 82.4539 17.1667 82.4539 16.46C82.4539 15.4067 82.1739 14.6 81.6139 14.04C81.0672 13.4667 80.3939 13.18 79.5939 13.18C78.7939 13.18 78.1206 13.4667 77.5739 14.04C77.0406 14.6 76.7739 15.4067 76.7739 16.46C76.7739 17.5133 77.0339 18.3267 77.5539 18.9C78.0872 19.46 78.7539 19.74 79.5539 19.74ZM92.4678 13.22H90.5278V22H87.6878V13.22H86.4278V10.92H87.6878V10.36C87.6878 9 88.0745 8 88.8478 7.36C89.6211 6.72 90.7878 6.42 92.3478 6.46V8.82C91.6678 8.80667 91.1945 8.92 90.9278 9.16C90.6611 9.4 90.5278 9.83333 90.5278 10.46V10.92H92.4678V13.22ZM95.7023 9.6C95.209 9.6 94.7957 9.44667 94.4623 9.14C94.1423 8.82 93.9823 8.42667 93.9823 7.96C93.9823 7.49333 94.1423 7.10667 94.4623 6.8C94.7957 6.48 95.209 6.32 95.7023 6.32C96.1957 6.32 96.6023 6.48 96.9223 6.8C97.2557 7.10667 97.4223 7.49333 97.4223 7.96C97.4223 8.42667 97.2557 8.82 96.9223 9.14C96.6023 9.44667 96.1957 9.6 95.7023 9.6ZM97.0823 10.92V22H94.2823V10.92H97.0823ZM102.649 7.2V22H99.8488V7.2H102.649ZM115.715 16.22C115.715 16.62 115.688 16.98 115.635 17.3H107.535C107.602 18.1 107.882 18.7267 108.375 19.18C108.868 19.6333 109.475 19.86 110.195 19.86C111.235 19.86 111.975 19.4133 112.415 18.52H115.435C115.115 19.5867 114.502 20.4667 113.595 21.16C112.688 21.84 111.575 22.18 110.255 22.18C109.188 22.18 108.228 21.9467 107.375 21.48C106.535 21 105.875 20.3267 105.395 19.46C104.928 18.5933 104.695 17.5933 104.695 16.46C104.695 15.3133 104.928 14.3067 105.395 13.44C105.862 12.5733 106.515 11.9067 107.355 11.44C108.195 10.9733 109.162 10.74 110.255 10.74C111.308 10.74 112.248 10.9667 113.075 11.42C113.915 11.8733 114.562 12.52 115.015 13.36C115.482 14.1867 115.715 15.14 115.715 16.22ZM112.815 15.42C112.802 14.7 112.542 14.1267 112.035 13.7C111.528 13.26 110.908 13.04 110.175 13.04C109.482 13.04 108.895 13.2533 108.415 13.68C107.948 14.0933 107.662 14.6733 107.555 15.42H112.815Z" fill="#AC3B61"/>
<ellipse cx="14.0529" cy="15" rx="14.0529" ry="15" fill="#123C69"/>
<path d="M11.6947 17.947L11.7018 17.9483L11.6945 17.9469C11.6517 17.9338 11.6092 17.9204 11.567 17.9066C11.4179 17.8581 11.2722 17.8058 11.13 17.7502C10.6529 17.2227 10.2282 16.5806 9.88043 15.8631C9.86597 15.8333 9.85164 15.8033 9.83745 15.7732C9.69396 15.469 9.56422 15.1519 9.45006 14.8246C9.44987 14.8241 9.44968 14.8235 9.4495 14.823C9.44628 14.8138 9.44308 14.8046 9.43989 14.7953C9.42146 14.7738 9.40326 14.7522 9.38528 14.7306C9.38461 14.7298 9.38394 14.729 9.38327 14.7282C8.76489 13.9835 8.41307 13.1797 8.41307 12.5045C8.41307 12.5043 8.41307 12.5041 8.41307 12.5039C8.41307 12.5037 8.41307 12.5035 8.41307 12.5033C8.4131 12.4599 8.41457 12.4173 8.41748 12.3755C8.53632 12.4164 8.65418 12.4591 8.77106 12.5033C8.77157 12.5035 8.77209 12.5037 8.77261 12.5039C8.77313 12.5041 8.77364 12.5043 8.77416 12.5045C8.84046 12.5296 8.90645 12.5553 8.9721 12.5814C9.00092 13.1259 9.32589 13.7913 9.87378 14.4238C9.8785 14.4293 9.88324 14.4347 9.888 14.4402C9.91348 14.4692 9.93305 14.5034 9.94548 14.5407C9.95358 14.5646 9.96176 14.5884 9.97003 14.6122C10.0929 14.9653 10.2347 15.3054 10.393 15.6284C10.4624 15.7703 10.5351 15.9088 10.6107 16.0437C10.9594 16.6658 11.3707 17.21 11.823 17.6413C11.8529 17.6698 11.8829 17.6978 11.9132 17.7253L11.6947 17.947Z" fill="white" stroke="white" stroke-width="25.4237"/>
</svg>
